<svg width="12" height="15" viewBox="0 0 12 15" fill="none" xmlns="http://www.w3.org/2000/svg">
<path fill-rule="evenodd" clip-rule="evenodd" d="M2.5 6.7C2.5 6.5 2.4 6.3 2.2 6.2C2.1 6 1.9 6 1.7 6C1.5 6 1.3 6.1 1.2 6.3C1 6.4 1 6.6 1 6.8L1.7 13.4C1.7 13.8 1.9 14.2 2.3 14.5C2.7 14.8 3 15 3.4 15H8.6C9.5 15 10.3 14.3 10.3 13.4L11 6.8C11 6.5 10.9 6.3 10.7 6.1C10.5 6 10.2 6 9.9 6.1C9.7 6.2 9.5 6.4 9.5 6.7L8.8 13.3C8.8 13.4 8.8 13.4 8.7 13.5C8.7 13.5 8.6 13.6 8.5 13.6H3.4C3.3 13.6 3.3 13.6 3.2 13.5C3.2 13.5 3.1 13.4 3.1 13.3L2.5 6.7ZM9 1.8V3H11.2C11.5 3 11.7 3.1 11.8 3.4C11.9 3.7 11.9 3.9 11.8 4.2C11.7 4.5 11.4 4.6 11.2 4.6H0.8C0.5 4.6 0.3 4.5 0.2 4.2C0.0999999 3.9 -1.52737e-07 3.6 0.0999998 3.4C0.2 3.2 0.5 3 0.8 3H3V1.8C3 0.8 3.8 0 4.8 0H7.3C8.2 0 9 0.8 9 1.8ZM4.5 1.8C4.5 1.7 4.5 1.7 4.6 1.6C4.6 1.6 4.7 1.5 4.8 1.5H7.3C7.4 1.5 7.4 1.5 7.5 1.6C7.5 1.6 7.6 1.7 7.6 1.8V3H4.6V1.8H4.5Z" fill="black"/>
</svg>
